<?xml version="1.0" encoding="UTF-8" standalone="no"?>
<svg
        xmlns:dc="http://purl.org/dc/elements/1.1/"
        xmlns:cc="http://creativecommons.org/ns#"
        xmlns:rdf="http://www.w3.org/1999/02/22-rdf-syntax-ns#"
        xmlns:sodipodi="http://sodipodi.sourceforge.net/DTD/sodipodi-0.dtd"
        xmlns:inkscape="http://www.inkscape.org/namespaces/inkscape"
        xmlns="http://www.w3.org/2000/svg"
        version="1.1"
        id="Layer_1"
        x="0px"
        y="0px"
        width="85px"
        height="85px"
        viewBox="0 0 80 80"
        enable-background="new 0 0 80 80"
        xml:space="preserve"
        sodipodi:docname="logo.svg"
        inkscape:version="0.92.4 (5da689c313, 2019-01-14)"><metadata
   id="metadata15"><rdf:RDF><cc:Work
       rdf:about=""><dc:format>image/svg+xml</dc:format><dc:type
        rdf:resource="http://purl.org/dc/dcmitype/StillImage"/></cc:Work></rdf:RDF></metadata>
    <defs
            id="defs13"/>
    <sodipodi:namedview
            pagecolor="#ffffff"
            bordercolor="#666666"
            borderopacity="1"
            objecttolerance="10"
            gridtolerance="10"
            guidetolerance="10"
            inkscape:pageopacity="0"
            inkscape:pageshadow="2"
            inkscape:window-width="1920"
            inkscape:window-height="1017"
            id="namedview11"
            showgrid="false"
            inkscape:zoom="5.5529412"
            inkscape:cx="10.137893"
            inkscape:cy="52.809896"
            inkscape:window-x="1912"
            inkscape:window-y="-8"
            inkscape:window-maximized="1"
            inkscape:current-layer="Layer_1"
            showguides="true"
            inkscape:guide-bbox="true"><sodipodi:guide
     position="41.355932,53.220339"
     orientation="1,0"
     id="guide4779"
     inkscape:locked="false" />
        <sodipodi:guide
                position="57.457627,39.491525"
                orientation="0,1"
                id="guide4781"
                inkscape:locked="false"/></sodipodi:namedview>
    <g
            id="g4"
            transform="matrix(0.96822034,0,0,0.97245763,2.5423729,2.2033898)">
		<path
                d="M 40,0 C 62.091,0 80,17.909 80,40 80,62.091 62.091,80 40,80 17.909,80 0,62.091 0,40 0,17.909 17.909,0 40,0 Z"
                id="path2"
                inkscape:connector-curvature="0"
                style="fill:#ffffff"/>
	</g>
    <g
            id="g8">
		
	</g>
    <path
            style="fill:#ff3300;fill-opacity:1;stroke-width:0.00512582"
            inkscape:connector-curvature="0"
            d="m 36.914845,68.104948 c -0.492295,-0.248443 -1.564984,-0.84673 -2.632487,-1.470365 -0.09846,-0.05578 -0.217646,-0.121684 -0.259104,-0.141964 -0.04145,-0.02028 -0.507842,-0.283933 -1.026048,-0.583076 C 32.473818,65.6104 32.038524,65.36196 32.02816,65.36196 c -0.01037,0 -0.310924,-0.172388 -0.673668,-0.380267 -0.357562,-0.20788 -0.663304,-0.380265 -0.673669,-0.380265 -0.01555,0 -1.295515,-0.725042 -1.425066,-0.811236 -0.04144,-0.03043 -0.114006,-0.06591 -0.155463,-0.08619 -0.04145,-0.02028 -0.497478,-0.278862 -1.010502,-0.572935 -0.513023,-0.294073 -0.969044,-0.552654 -1.010502,-0.572935 -0.04145,-0.02028 -0.160644,-0.08619 -0.259103,-0.141965 -0.09846,-0.06085 -0.554481,-0.319424 -1.010502,-0.578004 -1.368064,-0.775746 -1.653077,-0.937991 -1.73599,-0.988694 -0.04145,-0.03042 -0.114007,-0.06591 -0.155463,-0.08619 -0.0881,-0.04056 -2.829406,-1.60726 -2.953776,-1.688384 -0.04145,-0.03043 -0.114006,-0.06591 -0.155462,-0.08619 -0.103641,-0.04563 -2.306017,-1.308115 -2.53921,-1.460221 -0.435293,-0.26872 -1.00532,-0.613496 -1.12969,-0.679409 -0.2021,-0.106475 -0.798037,-0.7149 -0.948318,-0.968411 -0.181371,-0.304214 -0.243556,-0.69969 -0.305741,-1.875981 -0.06737,-1.318256 -0.06737,-20.524239 0,-21.71574 0.057,-0.95827 0.08291,-1.059675 0.347199,-1.333466 0.419746,-0.420829 1.098596,-0.319424 2.290471,0.344776 0.238375,0.131824 0.440474,0.243367 0.45084,0.243367 0.01037,0 0.171008,0.09127 0.357561,0.202809 0.186555,0.111547 0.347199,0.202809 0.362745,0.202809 0.01555,0 0.145097,0.07605 0.300559,0.167318 0.362746,0.218019 0.362746,0.218019 1.254059,0.730112 0.42493,0.243371 0.823948,0.47153 0.880951,0.507022 0.05701,0.03549 0.139917,0.08113 0.181372,0.101403 0.103642,0.05579 0.7514,0.425899 0.922408,0.527303 0.295378,0.177458 3.461617,2.002736 3.534167,2.038227 0.04145,0.02028 0.160644,0.08619 0.259102,0.141966 0.228011,0.136896 1.621986,0.92785 2.306018,1.313186 0.684032,0.385338 2.078008,1.176292 2.306017,1.313188 0.09846,0.05577 0.217649,0.121684 0.259106,0.141965 0.0881,0.04056 2.834587,1.612329 2.953775,1.688381 0.04145,0.03043 0.114004,0.06592 0.155461,0.08619 0.04145,0.02028 0.487114,0.273792 0.984593,0.567864 2.616941,1.536276 2.901954,1.820208 3.057416,3.072553 0.134734,1.135727 0.228011,12.599488 0.103642,13.35495 -0.181374,1.090098 -0.969047,1.38417 -2.145374,0.806166 C 36.386275,58.197745 34.557007,57.097509 34.297904,56.869349 33.929977,56.544856 33.644963,56.230502 33.551687,56.037833 33.31331,55.546021 33.31331,55.535882 33.178578,48.24998 l -0.01555,-0.811235 -0.217646,-0.405616 c -0.492296,-0.91771 -0.601119,-1.014045 -2.420024,-2.07372 -1.658259,-0.963341 -3.083327,-1.784717 -3.808815,-2.190333 -0.243558,-0.136897 -0.487114,-0.273791 -0.544116,-0.309285 -0.057,-0.0355 -0.139917,-0.08113 -0.181374,-0.101403 -0.04145,-0.02028 -0.238374,-0.131825 -0.440475,-0.243372 -0.196918,-0.116613 -0.50266,-0.289002 -0.673668,-0.380265 -0.171008,-0.09127 -0.378291,-0.207879 -0.466387,-0.258581 -1.285149,-0.735182 -2.005456,-0.71997 -2.409658,0.05578 -0.228011,0.43604 -0.228011,0.542514 -0.217647,5.455554 l 0.01037,4.674739 0.238376,0.471532 c 0.35238,0.70476 0.621846,1.014043 1.264422,1.434872 0.30056,0.197738 3.01596,1.779644 3.212878,1.870909 0.04144,0.02028 0.160645,0.08619 0.259106,0.141965 0.295376,0.172388 2.61694,1.500786 3.316518,1.896263 0.357562,0.197738 0.984592,0.552653 1.399158,0.785883 0.414566,0.23323 1.254059,0.7149 1.865542,1.064746 0.611484,0.349843 1.150418,0.654057 1.191875,0.674339 0.04145,0.02028 0.124369,0.06591 0.181372,0.101404 0.057,0.0355 0.243556,0.136894 0.414564,0.233231 0.922408,0.522231 2.176467,1.272623 2.565122,1.541345 0.580391,0.400547 0.896496,0.735181 1.12969,1.196571 l 0.191736,0.380267 0.01555,2.180192 c 0.02073,2.007808 0.01555,2.185265 -0.06737,2.241037 -0.05182,0.0355 -0.165826,0.131823 -0.259102,0.218017 -0.274649,0.243373 -0.456022,0.309284 -0.839494,0.309284 -0.331653,0 -0.393837,-0.02028 -0.958681,-0.29914 z"
            id="path2-6"/>
    <g
            transform="matrix(0.00518207,0,0,0.00507021,0.18438585,1.0209043)"
            style="fill:#f9a101;stroke:none"
            id="layer102"><path
     inkscape:connector-curvature="0"
     d="m 8563,13230 -61,-60 -6,-132 c -23,-489 -36,-3930 -16,-4360 10,-201 12,-222 37,-280 53,-125 123,-217 201,-266 38,-23 221,-132 300,-177 9,-5 44,-26 77,-44 33,-19 182,-107 330,-196 149,-89 317,-187 375,-220 108,-60 363,-207 390,-225 8,-6 22,-13 30,-17 8,-4 114,-65 235,-136 120,-72 291,-166 379,-211 159,-81 161,-81 236,-80 104,0 166,37 205,119 17,36 19,76 23,431 l 5,391 -42,81 c -44,84 -55,99 -124,171 -38,39 -199,161 -213,161 -3,0 -24,13 -47,29 -42,28 -129,81 -157,95 -8,4 -24,12 -35,19 -11,7 -51,30 -88,52 -38,22 -76,45 -85,50 -15,9 -83,50 -137,82 -11,7 -27,15 -35,19 -13,6 -72,42 -136,81 -10,7 -44,26 -74,44 -30,17 -88,54 -129,80 -41,27 -78,49 -82,49 -5,0 -9,4 -9,8 0,5 -10,14 -22,19 -58,27 -162,131 -198,196 -54,99 -53,84 -57,1152 l -3,990 42,57 c 51,68 100,98 158,98 42,0 187,-52 260,-93 19,-11 69,-38 110,-60 41,-22 80,-43 85,-47 6,-4 37,-22 70,-40 33,-18 78,-43 100,-56 57,-31 417,-242 435,-254 8,-6 22,-13 30,-17 23,-10 503,-299 610,-366 134,-85 179,-135 253,-283 l 46,-91 6,-1349 c 7,-1580 17,-2107 42,-2180 30,-91 112,-191 218,-269 22,-17 42,-32 45,-35 10,-10 125,-85 160,-103 66,-37 180,-121 180,-134 0,-7 6,-10 16,-6 15,5 88,-13 109,-28 6,-4 34,-14 64,-23 150,-44 257,7 298,141 17,55 18,174 18,2313 0,2431 2,2326 -51,2449 -28,62 -84,142 -134,189 -41,38 -179,124 -525,326 -137,80 -257,151 -265,156 -8,6 -22,13 -30,17 -17,8 -546,317 -570,333 -8,6 -22,13 -30,17 -8,4 -59,33 -113,65 -54,32 -100,58 -103,58 -3,0 -121,69 -154,90 -8,6 -22,13 -30,17 -8,4 -134,77 -280,163 -146,86 -272,159 -280,163 -8,4 -31,17 -50,28 -32,19 -111,65 -470,274 -69,40 -141,82 -160,94 -19,11 -42,24 -50,28 -18,8 -208,119 -230,133 -8,6 -22,13 -30,17 -8,4 -46,26 -85,48 -38,23 -97,57 -130,75 -33,18 -73,41 -90,51 -16,10 -55,31 -85,47 -30,16 -75,40 -100,54 -100,53 -178,78 -248,78 h -67 z"
     id="path9" />
        <path
                inkscape:connector-curvature="0"
                d="m 7945,7354 c -132,-36 -346,-139 -580,-281 -11,-7 -27,-16 -35,-20 -8,-4 -60,-34 -115,-66 -55,-33 -120,-70 -145,-84 -96,-54 -211,-120 -345,-199 -77,-45 -162,-94 -190,-110 -27,-15 -66,-36 -85,-47 -19,-11 -87,-50 -150,-87 -63,-37 -131,-77 -150,-87 -87,-49 -144,-83 -274,-162 -54,-34 -100,-61 -101,-61 -12,0 -237,-158 -268,-188 -52,-50 -67,-82 -67,-142 0,-112 64,-184 296,-327 82,-51 287,-160 351,-187 148,-62 280,-71 414,-26 95,31 324,146 489,244 30,19 80,47 110,63 30,16 109,61 175,98 275,157 496,270 608,311 56,20 91,26 157,26 96,1 156,-14 263,-66 64,-31 348,-189 387,-216 8,-6 22,-13 30,-17 17,-8 546,-317 570,-333 8,-6 22,-13 30,-17 8,-4 59,-33 113,-65 54,-32 101,-58 103,-58 2,0 21,-11 42,-23 20,-13 57,-35 82,-49 139,-77 168,-96 223,-147 81,-75 107,-119 107,-178 0,-101 -72,-185 -243,-284 -33,-19 -73,-42 -90,-53 -39,-22 -298,-171 -347,-199 -84,-47 -132,-75 -250,-142 -153,-89 -399,-229 -460,-263 -25,-14 -58,-33 -75,-43 -16,-10 -102,-54 -190,-99 -138,-69 -170,-82 -230,-88 -166,-17 -321,24 -500,133 -11,7 -47,27 -80,45 -33,18 -107,59 -165,92 -58,34 -166,96 -240,138 -74,43 -187,107 -250,143 -63,36 -182,104 -264,151 -82,47 -150,86 -151,86 -2,0 -85,49 -186,108 -101,60 -204,120 -229,134 -87,49 -307,175 -490,282 -404,236 -472,275 -620,349 l -105,52 -115,3 c -133,4 -234,-13 -320,-54 -49,-24 -222,-119 -275,-151 -11,-7 -27,-15 -35,-19 -8,-4 -59,-38 -112,-76 -123,-87 -207,-177 -209,-221 -5,-108 13,-154 84,-209 23,-18 44,-35 47,-39 3,-3 66,-44 140,-90 75,-46 145,-90 155,-97 11,-6 27,-15 35,-19 8,-4 98,-56 200,-116 102,-60 204,-120 227,-133 135,-75 223,-126 348,-199 77,-46 156,-92 175,-102 19,-11 112,-64 205,-118 94,-54 202,-116 240,-138 39,-22 144,-83 235,-137 156,-91 268,-156 370,-213 63,-35 252,-145 270,-157 8,-6 22,-13 30,-17 8,-4 60,-34 115,-66 88,-52 251,-146 370,-213 22,-12 125,-72 228,-133 104,-61 190,-111 192,-111 2,0 34,-17 72,-39 124,-70 262,-139 336,-167 97,-38 229,-41 327,-6 117,42 432,205 628,324 34,21 64,38 66,38 5,0 453,258 486,280 8,6 22,13 30,17 8,4 60,34 115,66 55,33 156,91 225,130 69,38 199,114 290,167 91,53 208,121 260,150 52,29 142,81 200,115 58,34 132,77 165,95 33,18 78,43 100,56 22,12 98,56 169,98 70,42 130,76 132,76 2,0 33,18 69,40 36,22 67,40 69,40 3,0 49,26 103,58 54,32 105,61 113,65 8,4 24,13 35,20 11,7 63,37 115,67 52,30 104,60 115,67 11,7 27,16 35,20 12,6 239,140 302,178 9,5 37,21 62,34 57,30 180,142 199,181 43,85 24,177 -50,248 -38,36 -136,105 -288,200 -22,14 -58,37 -80,52 -22,15 -47,30 -55,34 -23,11 -54,29 -96,58 -22,14 -120,74 -219,132 -99,59 -187,111 -195,116 -77,46 -183,110 -220,132 -25,15 -52,31 -60,35 -17,8 -548,318 -570,333 -8,6 -22,13 -30,17 -8,4 -59,33 -113,65 -54,32 -100,58 -103,58 -2,0 -33,18 -69,40 -36,22 -67,40 -69,40 -3,0 -65,35 -138,78 -73,43 -200,117 -283,164 -227,130 -334,191 -520,298 -816,469 -895,508 -1040,515 -44,2 -89,2 -100,-1 z"
                id="path11"/></g>
    <g
            transform="matrix(0.00518207,0,0,0.00507021,0.18438585,1.0209043)"
            style="fill:#4ca5d1;stroke:none"
            id="layer103"><path
     inkscape:connector-curvature="0"
     d="m 7945,7354 c -132,-36 -346,-139 -580,-281 -11,-7 -27,-16 -35,-20 -8,-4 -60,-34 -115,-66 -55,-33 -120,-70 -145,-84 -96,-54 -211,-120 -345,-199 -77,-45 -162,-94 -190,-110 -27,-15 -66,-36 -85,-47 -19,-11 -87,-50 -150,-87 -63,-37 -131,-77 -150,-87 -87,-49 -144,-83 -274,-162 -54,-34 -100,-61 -101,-61 -12,0 -237,-158 -268,-188 -52,-50 -67,-82 -67,-142 0,-112 64,-184 296,-327 82,-51 287,-160 351,-187 148,-62 280,-71 414,-26 95,31 324,146 489,244 30,19 80,47 110,63 30,16 109,61 175,98 275,157 496,270 608,311 56,20 91,26 157,26 96,1 156,-14 263,-66 64,-31 348,-189 387,-216 8,-6 22,-13 30,-17 17,-8 546,-317 570,-333 8,-6 22,-13 30,-17 8,-4 59,-33 113,-65 54,-32 101,-58 103,-58 2,0 21,-11 42,-23 20,-13 57,-35 82,-49 139,-77 168,-96 223,-147 81,-75 107,-119 107,-178 0,-101 -72,-185 -243,-284 -33,-19 -73,-42 -90,-53 -39,-22 -298,-171 -347,-199 -84,-47 -132,-75 -250,-142 -153,-89 -399,-229 -460,-263 -25,-14 -58,-33 -75,-43 -16,-10 -102,-54 -190,-99 -138,-69 -170,-82 -230,-88 -166,-17 -321,24 -500,133 -11,7 -47,27 -80,45 -33,18 -107,59 -165,92 -58,34 -166,96 -240,138 -74,43 -187,107 -250,143 -63,36 -182,104 -264,151 -82,47 -150,86 -151,86 -2,0 -85,49 -186,108 -101,60 -204,120 -229,134 -87,49 -307,175 -490,282 -404,236 -472,275 -620,349 l -105,52 -115,3 c -133,4 -234,-13 -320,-54 -49,-24 -222,-119 -275,-151 -11,-7 -27,-15 -35,-19 -8,-4 -59,-38 -112,-76 -123,-87 -207,-177 -209,-221 -5,-108 13,-154 84,-209 23,-18 44,-35 47,-39 3,-3 66,-44 140,-90 75,-46 145,-90 155,-97 11,-6 27,-15 35,-19 8,-4 98,-56 200,-116 102,-60 204,-120 227,-133 135,-75 223,-126 348,-199 77,-46 156,-92 175,-102 19,-11 112,-64 205,-118 94,-54 202,-116 240,-138 39,-22 144,-83 235,-137 156,-91 268,-156 370,-213 63,-35 252,-145 270,-157 8,-6 22,-13 30,-17 8,-4 60,-34 115,-66 88,-52 251,-146 370,-213 22,-12 125,-72 228,-133 104,-61 190,-111 192,-111 2,0 34,-17 72,-39 124,-70 262,-139 336,-167 97,-38 229,-41 327,-6 117,42 432,205 628,324 34,21 64,38 66,38 5,0 453,258 486,280 8,6 22,13 30,17 8,4 60,34 115,66 55,33 156,91 225,130 69,38 199,114 290,167 91,53 208,121 260,150 52,29 142,81 200,115 58,34 132,77 165,95 33,18 78,43 100,56 22,12 98,56 169,98 70,42 130,76 132,76 2,0 33,18 69,40 36,22 67,40 69,40 3,0 49,26 103,58 54,32 105,61 113,65 8,4 24,13 35,20 11,7 63,37 115,67 52,30 104,60 115,67 11,7 27,16 35,20 12,6 239,140 302,178 9,5 37,21 62,34 57,30 180,142 199,181 43,85 24,177 -50,248 -38,36 -136,105 -288,200 -22,14 -58,37 -80,52 -22,15 -47,30 -55,34 -23,11 -54,29 -96,58 -22,14 -120,74 -219,132 -99,59 -187,111 -195,116 -77,46 -183,110 -220,132 -25,15 -52,31 -60,35 -17,8 -548,318 -570,333 -8,6 -22,13 -30,17 -8,4 -59,33 -113,65 -54,32 -100,58 -103,58 -2,0 -33,18 -69,40 -36,22 -67,40 -69,40 -3,0 -65,35 -138,78 -73,43 -200,117 -283,164 -227,130 -334,191 -520,298 -816,469 -895,508 -1040,515 -44,2 -89,2 -100,-1 z"
     id="path14" /></g></svg>