<!DOCTYPE svg PUBLIC "-//W3C//DTD SVG 20010904//EN" "http://www.w3.org/TR/2001/REC-SVG-20010904/DTD/svg10.dtd">
<svg version="1.0" xmlns="http://www.w3.org/2000/svg" width="1600px" height="1598px" viewBox="0 0 16000 15980"
     preserveAspectRatio="xMidYMid meet">
    <g id="layer101" fill="#fe5248" stroke="none">
        <path d="M7088 13231 c-95 -49 -302 -167 -508 -290 -19 -11 -42 -24 -50 -28 -8 -4 -98 -56 -198 -115 -101 -59 -185 -108 -187 -108 -2 0 -60 -34 -130 -75 -69 -41 -128 -75 -130 -75 -3 0 -250 -143 -275 -160 -8 -6 -22 -13 -30 -17 -8 -4 -96 -55 -195 -113 -99 -58 -187 -109 -195 -113 -8 -4 -31 -17 -50 -28 -19 -12 -107 -63 -195 -114 -264 -153 -319 -185 -335 -195 -8 -6 -22 -13 -30 -17 -17 -8 -546 -317 -570 -333 -8 -6 -22 -13 -30 -17 -20 -9 -445 -258 -490 -288 -84 -53 -194 -121 -218 -134 -39 -21 -154 -141 -183 -191 -35 -60 -47 -138 -59 -370 -13 -260 -13 -4048 0 -4283 11 -189 16 -209 67 -263 81 -83 212 -63 442 68 46 26 85 48 87 48 2 0 33 18 69 40 36 22 67 40 70 40 3 0 28 15 58 33 70 43 70 43 242 144 82 48 159 93 170 100 11 7 27 16 35 20 20 11 145 84 178 104 57 35 668 395 682 402 8 4 31 17 50 28 44 27 313 183 445 259 132 76 401 232 445 259 19 11 42 24 50 28 17 8 547 318 570 333 8 6 22 13 30 17 8 4 94 54 190 112 505 303 560 359 590 606 26 224 44 2485 20 2634 -35 215 -187 273 -414 159 -120 -61 -473 -278 -523 -323 -71 -64 -126 -126 -144 -164 -46 -97 -46 -99 -72 -1536 l-3 -160 -42 -80 c-95 -181 -116 -200 -467 -409 -320 -190 -595 -352 -735 -432 -47 -27 -94 -54 -105 -61 -11 -7 -27 -16 -35 -20 -8 -4 -46 -26 -85 -48 -38 -23 -97 -57 -130 -75 -33 -18 -73 -41 -90 -51 -248 -145 -387 -142 -465 11 -44 86 -44 107 -42 1076 l2 922 46 93 c68 139 120 200 244 283 58 39 582 351 620 369 8 4 31 17 50 28 57 34 505 296 640 374 69 39 190 109 270 155 80 46 242 141 360 210 118 69 222 129 230 133 8 4 24 13 35 20 11 7 47 27 80 46 178 103 420 251 495 304 112 79 173 145 218 236 l37 75 3 430 c4 396 3 431 -13 442 -10 7 -32 26 -50 43 -53 48 -88 61 -162 61 -64 0 -76 -4 -185 -59z"/>
        <path d="M8563 13230 l-61 -60 -6 -132 c-23 -489 -36 -3930 -16 -4360 10 -201 12 -222 37 -280 53 -125 123 -217 201 -266 38 -23 221 -132 300 -177 9 -5 44 -26 77 -44 33 -19 182 -107 330 -196 149 -89 317 -187 375 -220 108 -60 363 -207 390 -225 8 -6 22 -13 30 -17 8 -4 114 -65 235 -136 120 -72 291 -166 379 -211 159 -81 161 -81 236 -80 104 0 166 37 205 119 17 36 19 76 23 431 l5 391 -42 81 c-44 84 -55 99 -124 171 -38 39 -199 161 -213 161 -3 0 -24 13 -47 29 -42 28 -129 81 -157 95 -8 4 -24 12 -35 19 -11 7 -51 30 -88 52 -38 22 -76 45 -85 50 -15 9 -83 50 -137 82 -11 7 -27 15 -35 19 -13 6 -72 42 -136 81 -10 7 -44 26 -74 44 -30 17 -88 54 -129 80 -41 27 -78 49 -82 49 -5 0 -9 4 -9 8 0 5 -10 14 -22 19 -58 27 -162 131 -198 196 -54 99 -53 84 -57 1152 l-3 990 42 57 c51 68 100 98 158 98 42 0 187 -52 260 -93 19 -11 69 -38 110 -60 41 -22 80 -43 85 -47 6 -4 37 -22 70 -40 33 -18 78 -43 100 -56 57 -31 417 -242 435 -254 8 -6 22 -13 30 -17 23 -10 503 -299 610 -366 134 -85 179 -135 253 -283 l46 -91 6 -1349 c7 -1580 17 -2107 42 -2180 30 -91 112 -191 218 -269 22 -17 42 -32 45 -35 10 -10 125 -85 160 -103 66 -37 180 -121 180 -134 0 -7 6 -10 16 -6 15 5 88 -13 109 -28 6 -4 34 -14 64 -23 150 -44 257 7 298 141 17 55 18 174 18 2313 0 2431 2 2326 -51 2449 -28 62 -84 142 -134 189 -41 38 -179 124 -525 326 -137 80 -257 151 -265 156 -8 6 -22 13 -30 17 -17 8 -546 317 -570 333 -8 6 -22 13 -30 17 -8 4 -59 33 -113 65 -54 32 -100 58 -103 58 -3 0 -121 69 -154 90 -8 6 -22 13 -30 17 -8 4 -134 77 -280 163 -146 86 -272 159 -280 163 -8 4 -31 17 -50 28 -32 19 -111 65 -470 274 -69 40 -141 82 -160 94 -19 11 -42 24 -50 28 -18 8 -208 119 -230 133 -8 6 -22 13 -30 17 -8 4 -46 26 -85 48 -38 23 -97 57 -130 75 -33 18 -73 41 -90 51 -16 10 -55 31 -85 47 -30 16 -75 40 -100 54 -100 53 -178 78 -248 78 l-67 0 -62 -60z"/>
        <path d="M7945 7354 c-132 -36 -346 -139 -580 -281 -11 -7 -27 -16 -35 -20 -8 -4 -60 -34 -115 -66 -55 -33 -120 -70 -145 -84 -96 -54 -211 -120 -345 -199 -77 -45 -162 -94 -190 -110 -27 -15 -66 -36 -85 -47 -19 -11 -87 -50 -150 -87 -63 -37 -131 -77 -150 -87 -87 -49 -144 -83 -274 -162 -54 -34 -100 -61 -101 -61 -12 0 -237 -158 -268 -188 -52 -50 -67 -82 -67 -142 0 -112 64 -184 296 -327 82 -51 287 -160 351 -187 148 -62 280 -71 414 -26 95 31 324 146 489 244 30 19 80 47 110 63 30 16 109 61 175 98 275 157 496 270 608 311 56 20 91 26 157 26 96 1 156 -14 263 -66 64 -31 348 -189 387 -216 8 -6 22 -13 30 -17 17 -8 546 -317 570 -333 8 -6 22 -13 30 -17 8 -4 59 -33 113 -65 54 -32 101 -58 103 -58 2 0 21 -11 42 -23 20 -13 57 -35 82 -49 139 -77 168 -96 223 -147 81 -75 107 -119 107 -178 0 -101 -72 -185 -243 -284 -33 -19 -73 -42 -90 -53 -39 -22 -298 -171 -347 -199 -84 -47 -132 -75 -250 -142 -153 -89 -399 -229 -460 -263 -25 -14 -58 -33 -75 -43 -16 -10 -102 -54 -190 -99 -138 -69 -170 -82 -230 -88 -166 -17 -321 24 -500 133 -11 7 -47 27 -80 45 -33 18 -107 59 -165 92 -58 34 -166 96 -240 138 -74 43 -187 107 -250 143 -63 36 -182 104 -264 151 -82 47 -150 86 -151 86 -2 0 -85 49 -186 108 -101 60 -204 120 -229 134 -87 49 -307 175 -490 282 -404 236 -472 275 -620 349 l-105 52 -115 3 c-133 4 -234 -13 -320 -54 -49 -24 -222 -119 -275 -151 -11 -7 -27 -15 -35 -19 -8 -4 -59 -38 -112 -76 -123 -87 -207 -177 -209 -221 -5 -108 13 -154 84 -209 23 -18 44 -35 47 -39 3 -3 66 -44 140 -90 75 -46 145 -90 155 -97 11 -6 27 -15 35 -19 8 -4 98 -56 200 -116 102 -60 204 -120 227 -133 135 -75 223 -126 348 -199 77 -46 156 -92 175 -102 19 -11 112 -64 205 -118 94 -54 202 -116 240 -138 39 -22 144 -83 235 -137 156 -91 268 -156 370 -213 63 -35 252 -145 270 -157 8 -6 22 -13 30 -17 8 -4 60 -34 115 -66 88 -52 251 -146 370 -213 22 -12 125 -72 228 -133 104 -61 190 -111 192 -111 2 0 34 -17 72 -39 124 -70 262 -139 336 -167 97 -38 229 -41 327 -6 117 42 432 205 628 324 34 21 64 38 66 38 5 0 453 258 486 280 8 6 22 13 30 17 8 4 60 34 115 66 55 33 156 91 225 130 69 38 199 114 290 167 91 53 208 121 260 150 52 29 142 81 200 115 58 34 132 77 165 95 33 18 78 43 100 56 22 12 98 56 169 98 70 42 130 76 132 76 2 0 33 18 69 40 36 22 67 40 69 40 3 0 49 26 103 58 54 32 105 61 113 65 8 4 24 13 35 20 11 7 63 37 115 67 52 30 104 60 115 67 11 7 27 16 35 20 12 6 239 140 302 178 9 5 37 21 62 34 57 30 180 142 199 181 43 85 24 177 -50 248 -38 36 -136 105 -288 200 -22 14 -58 37 -80 52 -22 15 -47 30 -55 34 -23 11 -54 29 -96 58 -22 14 -120 74 -219 132 -99 59 -187 111 -195 116 -77 46 -183 110 -220 132 -25 15 -52 31 -60 35 -17 8 -548 318 -570 333 -8 6 -22 13 -30 17 -8 4 -59 33 -113 65 -54 32 -100 58 -103 58 -2 0 -33 18 -69 40 -36 22 -67 40 -69 40 -3 0 -65 35 -138 78 -73 43 -200 117 -283 164 -227 130 -334 191 -520 298 -816 469 -895 508 -1040 515 -44 2 -89 2 -100 -1z"/>
    </g>
    <g id="layer102" fill="#f9a101" stroke="none">
        <path d="M8563 13230 l-61 -60 -6 -132 c-23 -489 -36 -3930 -16 -4360 10 -201 12 -222 37 -280 53 -125 123 -217 201 -266 38 -23 221 -132 300 -177 9 -5 44 -26 77 -44 33 -19 182 -107 330 -196 149 -89 317 -187 375 -220 108 -60 363 -207 390 -225 8 -6 22 -13 30 -17 8 -4 114 -65 235 -136 120 -72 291 -166 379 -211 159 -81 161 -81 236 -80 104 0 166 37 205 119 17 36 19 76 23 431 l5 391 -42 81 c-44 84 -55 99 -124 171 -38 39 -199 161 -213 161 -3 0 -24 13 -47 29 -42 28 -129 81 -157 95 -8 4 -24 12 -35 19 -11 7 -51 30 -88 52 -38 22 -76 45 -85 50 -15 9 -83 50 -137 82 -11 7 -27 15 -35 19 -13 6 -72 42 -136 81 -10 7 -44 26 -74 44 -30 17 -88 54 -129 80 -41 27 -78 49 -82 49 -5 0 -9 4 -9 8 0 5 -10 14 -22 19 -58 27 -162 131 -198 196 -54 99 -53 84 -57 1152 l-3 990 42 57 c51 68 100 98 158 98 42 0 187 -52 260 -93 19 -11 69 -38 110 -60 41 -22 80 -43 85 -47 6 -4 37 -22 70 -40 33 -18 78 -43 100 -56 57 -31 417 -242 435 -254 8 -6 22 -13 30 -17 23 -10 503 -299 610 -366 134 -85 179 -135 253 -283 l46 -91 6 -1349 c7 -1580 17 -2107 42 -2180 30 -91 112 -191 218 -269 22 -17 42 -32 45 -35 10 -10 125 -85 160 -103 66 -37 180 -121 180 -134 0 -7 6 -10 16 -6 15 5 88 -13 109 -28 6 -4 34 -14 64 -23 150 -44 257 7 298 141 17 55 18 174 18 2313 0 2431 2 2326 -51 2449 -28 62 -84 142 -134 189 -41 38 -179 124 -525 326 -137 80 -257 151 -265 156 -8 6 -22 13 -30 17 -17 8 -546 317 -570 333 -8 6 -22 13 -30 17 -8 4 -59 33 -113 65 -54 32 -100 58 -103 58 -3 0 -121 69 -154 90 -8 6 -22 13 -30 17 -8 4 -134 77 -280 163 -146 86 -272 159 -280 163 -8 4 -31 17 -50 28 -32 19 -111 65 -470 274 -69 40 -141 82 -160 94 -19 11 -42 24 -50 28 -18 8 -208 119 -230 133 -8 6 -22 13 -30 17 -8 4 -46 26 -85 48 -38 23 -97 57 -130 75 -33 18 -73 41 -90 51 -16 10 -55 31 -85 47 -30 16 -75 40 -100 54 -100 53 -178 78 -248 78 l-67 0 -62 -60z"/>
        <path d="M7945 7354 c-132 -36 -346 -139 -580 -281 -11 -7 -27 -16 -35 -20 -8 -4 -60 -34 -115 -66 -55 -33 -120 -70 -145 -84 -96 -54 -211 -120 -345 -199 -77 -45 -162 -94 -190 -110 -27 -15 -66 -36 -85 -47 -19 -11 -87 -50 -150 -87 -63 -37 -131 -77 -150 -87 -87 -49 -144 -83 -274 -162 -54 -34 -100 -61 -101 -61 -12 0 -237 -158 -268 -188 -52 -50 -67 -82 -67 -142 0 -112 64 -184 296 -327 82 -51 287 -160 351 -187 148 -62 280 -71 414 -26 95 31 324 146 489 244 30 19 80 47 110 63 30 16 109 61 175 98 275 157 496 270 608 311 56 20 91 26 157 26 96 1 156 -14 263 -66 64 -31 348 -189 387 -216 8 -6 22 -13 30 -17 17 -8 546 -317 570 -333 8 -6 22 -13 30 -17 8 -4 59 -33 113 -65 54 -32 101 -58 103 -58 2 0 21 -11 42 -23 20 -13 57 -35 82 -49 139 -77 168 -96 223 -147 81 -75 107 -119 107 -178 0 -101 -72 -185 -243 -284 -33 -19 -73 -42 -90 -53 -39 -22 -298 -171 -347 -199 -84 -47 -132 -75 -250 -142 -153 -89 -399 -229 -460 -263 -25 -14 -58 -33 -75 -43 -16 -10 -102 -54 -190 -99 -138 -69 -170 -82 -230 -88 -166 -17 -321 24 -500 133 -11 7 -47 27 -80 45 -33 18 -107 59 -165 92 -58 34 -166 96 -240 138 -74 43 -187 107 -250 143 -63 36 -182 104 -264 151 -82 47 -150 86 -151 86 -2 0 -85 49 -186 108 -101 60 -204 120 -229 134 -87 49 -307 175 -490 282 -404 236 -472 275 -620 349 l-105 52 -115 3 c-133 4 -234 -13 -320 -54 -49 -24 -222 -119 -275 -151 -11 -7 -27 -15 -35 -19 -8 -4 -59 -38 -112 -76 -123 -87 -207 -177 -209 -221 -5 -108 13 -154 84 -209 23 -18 44 -35 47 -39 3 -3 66 -44 140 -90 75 -46 145 -90 155 -97 11 -6 27 -15 35 -19 8 -4 98 -56 200 -116 102 -60 204 -120 227 -133 135 -75 223 -126 348 -199 77 -46 156 -92 175 -102 19 -11 112 -64 205 -118 94 -54 202 -116 240 -138 39 -22 144 -83 235 -137 156 -91 268 -156 370 -213 63 -35 252 -145 270 -157 8 -6 22 -13 30 -17 8 -4 60 -34 115 -66 88 -52 251 -146 370 -213 22 -12 125 -72 228 -133 104 -61 190 -111 192 -111 2 0 34 -17 72 -39 124 -70 262 -139 336 -167 97 -38 229 -41 327 -6 117 42 432 205 628 324 34 21 64 38 66 38 5 0 453 258 486 280 8 6 22 13 30 17 8 4 60 34 115 66 55 33 156 91 225 130 69 38 199 114 290 167 91 53 208 121 260 150 52 29 142 81 200 115 58 34 132 77 165 95 33 18 78 43 100 56 22 12 98 56 169 98 70 42 130 76 132 76 2 0 33 18 69 40 36 22 67 40 69 40 3 0 49 26 103 58 54 32 105 61 113 65 8 4 24 13 35 20 11 7 63 37 115 67 52 30 104 60 115 67 11 7 27 16 35 20 12 6 239 140 302 178 9 5 37 21 62 34 57 30 180 142 199 181 43 85 24 177 -50 248 -38 36 -136 105 -288 200 -22 14 -58 37 -80 52 -22 15 -47 30 -55 34 -23 11 -54 29 -96 58 -22 14 -120 74 -219 132 -99 59 -187 111 -195 116 -77 46 -183 110 -220 132 -25 15 -52 31 -60 35 -17 8 -548 318 -570 333 -8 6 -22 13 -30 17 -8 4 -59 33 -113 65 -54 32 -100 58 -103 58 -2 0 -33 18 -69 40 -36 22 -67 40 -69 40 -3 0 -65 35 -138 78 -73 43 -200 117 -283 164 -227 130 -334 191 -520 298 -816 469 -895 508 -1040 515 -44 2 -89 2 -100 -1z"/>
    </g>
    <g id="layer103" fill="#4ca5d1" stroke="none">
        <path d="M7945 7354 c-132 -36 -346 -139 -580 -281 -11 -7 -27 -16 -35 -20 -8 -4 -60 -34 -115 -66 -55 -33 -120 -70 -145 -84 -96 -54 -211 -120 -345 -199 -77 -45 -162 -94 -190 -110 -27 -15 -66 -36 -85 -47 -19 -11 -87 -50 -150 -87 -63 -37 -131 -77 -150 -87 -87 -49 -144 -83 -274 -162 -54 -34 -100 -61 -101 -61 -12 0 -237 -158 -268 -188 -52 -50 -67 -82 -67 -142 0 -112 64 -184 296 -327 82 -51 287 -160 351 -187 148 -62 280 -71 414 -26 95 31 324 146 489 244 30 19 80 47 110 63 30 16 109 61 175 98 275 157 496 270 608 311 56 20 91 26 157 26 96 1 156 -14 263 -66 64 -31 348 -189 387 -216 8 -6 22 -13 30 -17 17 -8 546 -317 570 -333 8 -6 22 -13 30 -17 8 -4 59 -33 113 -65 54 -32 101 -58 103 -58 2 0 21 -11 42 -23 20 -13 57 -35 82 -49 139 -77 168 -96 223 -147 81 -75 107 -119 107 -178 0 -101 -72 -185 -243 -284 -33 -19 -73 -42 -90 -53 -39 -22 -298 -171 -347 -199 -84 -47 -132 -75 -250 -142 -153 -89 -399 -229 -460 -263 -25 -14 -58 -33 -75 -43 -16 -10 -102 -54 -190 -99 -138 -69 -170 -82 -230 -88 -166 -17 -321 24 -500 133 -11 7 -47 27 -80 45 -33 18 -107 59 -165 92 -58 34 -166 96 -240 138 -74 43 -187 107 -250 143 -63 36 -182 104 -264 151 -82 47 -150 86 -151 86 -2 0 -85 49 -186 108 -101 60 -204 120 -229 134 -87 49 -307 175 -490 282 -404 236 -472 275 -620 349 l-105 52 -115 3 c-133 4 -234 -13 -320 -54 -49 -24 -222 -119 -275 -151 -11 -7 -27 -15 -35 -19 -8 -4 -59 -38 -112 -76 -123 -87 -207 -177 -209 -221 -5 -108 13 -154 84 -209 23 -18 44 -35 47 -39 3 -3 66 -44 140 -90 75 -46 145 -90 155 -97 11 -6 27 -15 35 -19 8 -4 98 -56 200 -116 102 -60 204 -120 227 -133 135 -75 223 -126 348 -199 77 -46 156 -92 175 -102 19 -11 112 -64 205 -118 94 -54 202 -116 240 -138 39 -22 144 -83 235 -137 156 -91 268 -156 370 -213 63 -35 252 -145 270 -157 8 -6 22 -13 30 -17 8 -4 60 -34 115 -66 88 -52 251 -146 370 -213 22 -12 125 -72 228 -133 104 -61 190 -111 192 -111 2 0 34 -17 72 -39 124 -70 262 -139 336 -167 97 -38 229 -41 327 -6 117 42 432 205 628 324 34 21 64 38 66 38 5 0 453 258 486 280 8 6 22 13 30 17 8 4 60 34 115 66 55 33 156 91 225 130 69 38 199 114 290 167 91 53 208 121 260 150 52 29 142 81 200 115 58 34 132 77 165 95 33 18 78 43 100 56 22 12 98 56 169 98 70 42 130 76 132 76 2 0 33 18 69 40 36 22 67 40 69 40 3 0 49 26 103 58 54 32 105 61 113 65 8 4 24 13 35 20 11 7 63 37 115 67 52 30 104 60 115 67 11 7 27 16 35 20 12 6 239 140 302 178 9 5 37 21 62 34 57 30 180 142 199 181 43 85 24 177 -50 248 -38 36 -136 105 -288 200 -22 14 -58 37 -80 52 -22 15 -47 30 -55 34 -23 11 -54 29 -96 58 -22 14 -120 74 -219 132 -99 59 -187 111 -195 116 -77 46 -183 110 -220 132 -25 15 -52 31 -60 35 -17 8 -548 318 -570 333 -8 6 -22 13 -30 17 -8 4 -59 33 -113 65 -54 32 -100 58 -103 58 -2 0 -33 18 -69 40 -36 22 -67 40 -69 40 -3 0 -65 35 -138 78 -73 43 -200 117 -283 164 -227 130 -334 191 -520 298 -816 469 -895 508 -1040 515 -44 2 -89 2 -100 -1z"/>
    </g>

</svg>